<svg width="133" height="132" viewBox="0 0 133 132" fill="none" xmlns="http://www.w3.org/2000/svg">
<rect x="0.19458" y="0.0664062" width="131.868" height="131.868" rx="12" fill="#F0A024"/>
<path d="M122.063 5.06641H10.1946C7.43316 5.06641 5.19458 7.30498 5.19458 10.0664V121.935C5.19458 124.696 7.43315 126.935 10.1946 126.935H122.063C124.824 126.935 127.063 124.696 127.063 121.935V10.0664C127.063 7.30498 124.824 5.06641 122.063 5.06641Z" fill="#373122"/>
<path d="M43.8323 76.0102L38.6128 93.3187C38.527 93.916 38.2701 94.1153 37.7572 94.1153H29.0292C28.4308 94.1153 28.2606 93.816 28.4308 93.1211C33.0517 77.8999 40.8373 52.5334 46.3128 35.3234C46.57 34.3291 46.8268 33.3339 46.9973 29.8521C46.9973 29.4547 47.2544 29.2554 47.5113 29.2554H59.3194C59.7464 29.2554 59.8322 29.3551 60.0036 29.7527C66.3341 50.1458 73.2647 72.6283 79.7671 93.2202C79.9385 93.816 79.7671 94.1153 79.2543 94.1153H69.6707C69.2428 94.1153 69.0717 93.9163 68.9015 93.5184L63.4248 76.0105H43.8323V76.0102ZM61.1148 66.2607C59.4035 59.5957 55.2108 46.1663 53.5006 39.2029H53.4148C52.1305 45.7681 48.6237 57.0093 46.0565 66.2607H61.1148Z" fill="#F0A024"/>
<path d="M88.4406 33.0169C88.4406 29.3365 90.878 26.8501 94.1563 26.8501C97.6033 26.8501 99.7055 29.3365 99.7055 33.0169C99.7055 36.7976 97.4354 39.1849 94.073 39.1849C90.7095 39.1849 88.4406 36.7976 88.4406 33.0169ZM89.0285 46.546C89.0285 45.9493 89.1961 45.7508 89.6175 45.7508H98.5276C99.0323 45.7508 99.2014 45.8502 99.2014 46.546V93.3008C99.2014 93.7992 99.0323 94.096 98.5276 94.096H89.7852C89.2811 94.096 89.0285 93.8984 89.0285 93.202V46.546Z" fill="#F0A024"/>
</svg>
