<svg xmlns="http://www.w3.org/2000/svg" width="151" height="168" viewBox="0 0 151 168" fill="none">
  <path d="M150.625 56.1667C150.625 141.583 75.625 167.417 75.625 167.417C75.625 167.417 0.625 141.583 0.625 56.1667C0.625 45.75 1.45833 37 2.29167 29.9167C3.54167 19.5 10.625 11.1667 20.625 8.66667C33.5417 4.91667 53.9583 0.75 75.625 0.75C97.2917 0.75 117.708 4.91667 131.042 8.66667C141.042 11.1667 148.125 19.9167 149.375 29.9167C149.792 37 150.625 46.1667 150.625 56.1667Z" fill="#5D4037"/>
  <path d="M75.625 13.25C96.0417 13.25 115.208 17.4167 127.708 20.75C132.708 22 136.042 26.1667 136.875 31.5833C137.708 39.5 138.125 47.8333 138.125 56.1667C138.125 121.167 90.2083 147.417 75.625 153.667C61.0417 147 13.125 120.75 13.125 56.1667C13.125 47.8333 13.5417 39.5 14.375 31.5833C14.7917 26.1667 18.5417 22 23.5417 20.75C36.0417 17.4167 55.2083 13.25 75.625 13.25ZM75.625 0.75C53.9583 0.75 33.5417 4.91667 20.2083 8.66667C10.625 11.1667 3.125 19.9167 2.29167 29.9167C1.45833 37 0.625 46.1667 0.625 56.1667C0.625 141.583 75.625 167.417 75.625 167.417C75.625 167.417 150.625 141.583 150.625 56.1667C150.625 45.75 149.792 37 148.958 29.9167C147.708 19.5 140.625 11.1667 130.625 8.66667C117.708 4.91667 97.2917 0.75 75.625 0.75Z" fill="#4CAF50"/>
  <path d="M71.4583 100.75H79.7916V134.083H71.4583V100.75Z" fill="#DCEDC8"/>
  <path d="M75.625 25.75C75.625 25.75 50.625 46.5833 50.625 79.9167C50.625 101.583 64.375 115.333 71.4583 121.583L75.625 109.083L79.7917 121.583C86.875 115.333 100.625 101.583 100.625 79.9167C100.625 46.5833 75.625 25.75 75.625 25.75Z" fill="#4CAF50"/>
  <path d="M75.625 25.75C75.625 25.75 50.625 46.5833 50.625 79.9167C50.625 101.583 64.375 115.333 71.4583 121.583L75.625 109.083V25.75Z" fill="#81C784"/>
</svg>