<svg width="133" height="133" viewBox="0 0 133 133" fill="none" xmlns="http://www.w3.org/2000/svg">
<path fill-rule="evenodd" clip-rule="evenodd" d="M24.9231 23.6685C29.0385 27.0121 30.5823 26.757 38.3105 26.2414L111.166 21.8667C112.712 21.8667 111.427 20.3252 110.911 20.069L98.8117 11.3218C96.4931 9.52177 93.4044 7.46042 87.4843 7.97609L16.9377 13.1215C14.3649 13.3766 13.851 14.663 14.8756 15.6941L24.9231 23.6685ZM29.2972 40.6476V117.305C29.2972 121.425 31.356 122.966 35.9896 122.711L116.058 118.078C120.694 117.823 121.211 114.989 121.211 111.643V35.4999C121.211 32.1586 119.925 30.3568 117.088 30.6139L33.415 35.4999C30.327 35.7594 29.2972 37.304 29.2972 40.6476ZM108.341 44.7597C108.854 47.0771 108.341 49.3925 106.019 49.6531L102.161 50.4218V107.015C98.8117 108.815 95.7229 109.845 93.149 109.845C89.0281 109.845 87.996 108.557 84.9094 104.701L59.6744 65.0852V103.414L67.6598 105.216C67.6598 105.216 67.6598 109.845 61.2173 109.845L43.4567 110.875C42.9408 109.845 43.4567 107.274 45.2583 106.759L49.893 105.475V54.7962L43.458 54.2805C42.9418 51.963 44.2272 48.6215 47.8342 48.3623L66.8872 47.0779L93.149 87.2093V51.7079L86.4532 50.9395C85.9394 48.1064 87.996 46.0492 90.571 45.7941L108.341 44.7597ZM11.0145 6.17634L84.3942 0.772433C93.4054 -0.000409991 95.7239 0.517335 101.388 4.63144L124.811 21.0949C128.676 23.926 129.965 24.6967 129.965 27.7829V118.078C129.965 123.737 127.903 127.084 120.696 127.596L35.4797 132.742C30.0693 133 27.4943 132.229 24.6609 128.625L7.41137 106.244C4.32078 102.125 3.0354 99.0427 3.0354 95.4369V15.1766C3.0354 10.5489 5.09753 6.68862 11.0145 6.17634Z" fill="black"/>
</svg>
