<svg xmlns="http://www.w3.org/2000/svg" width="101" height="101" viewBox="0 0 101 101" fill="none">
  <path d="M52.2387 0.687204C48.1467 0.700362 45.3099 1.06088 41.881 1.65297C31.755 3.41608 29.9103 7.11862 29.9103 13.9421V24.3708H53.5939V29.6339H29.0103H17.5632C10.6265 29.6339 4.5556 32.9022 2.63196 40.7362C0.458331 49.7281 0.360964 55.3595 2.63196 64.7488C4.35561 71.7512 8.15289 77.0011 15.0922 77.0011H24.6499V63.5699C24.6499 55.7648 31.7181 48.0545 39.8179 48.0545H58.8596C65.4989 48.0545 72.0172 43.1546 72.0172 36.5363V13.9421C72.0172 7.52388 67.3883 2.724 60.9174 1.64771C61.078 1.63192 56.2965 0.671415 52.2387 0.687204ZM39.1232 11.2133C41.2837 11.2133 43.0705 12.9948 43.0705 15.1658C43.0705 17.3578 41.2837 19.1078 39.1232 19.1078C36.9206 19.1078 35.1759 17.3605 35.1759 15.1658C35.1759 13.0027 36.9206 11.2133 39.1232 11.2133Z" fill="url(#paint0_linear_494_77)"/>
  <path d="M49.6887 100.685C53.7808 100.672 56.6175 100.311 60.0464 99.7192C70.1725 97.9561 72.0172 94.2536 72.0172 87.4301V77.0014H48.3335V71.7383H72.9198H84.3669C91.3035 71.7383 97.3744 68.47 99.2981 60.636C101.472 51.6441 101.569 46.0127 99.2981 36.6234C97.5718 29.621 93.7745 24.3711 86.8352 24.3711H77.2776V37.8023C77.2776 45.6074 70.2093 53.3177 62.1095 53.3177H43.0679C36.4285 53.3177 29.9103 58.2176 29.9103 64.8359V87.4301C29.9103 93.8483 34.5391 98.6482 41.01 99.7245C40.8495 99.7403 45.6309 100.701 49.6887 100.685ZM62.8069 90.1589C60.6464 90.1589 58.8596 88.3774 58.8596 86.2064C58.8596 84.0144 60.6464 82.2644 62.8069 82.2644C65.0094 82.2644 66.7541 84.0117 66.7541 86.2064C66.7541 88.3695 65.0068 90.1589 62.8069 90.1589Z" fill="url(#paint1_linear_494_77)"/>
  <defs>
    <linearGradient id="paint0_linear_494_77" x1="16.479" y1="21.6656" x2="58.2043" y2="56.678" gradientUnits="userSpaceOnUse">
      <stop stop-color="#26ABE7"/>
      <stop offset="1" stop-color="#086DBF"/>
    </linearGradient>
    <linearGradient id="paint1_linear_494_77" x1="81.9406" y1="87.2932" x2="50.844" y2="42.8811" gradientUnits="userSpaceOnUse">
      <stop stop-color="#FEB705"/>
      <stop offset="1" stop-color="#FFDA1C"/>
    </linearGradient>
  </defs>
</svg>