<svg width="100" height="100" viewBox="0 0 100 100" fill="none" xmlns="http://www.w3.org/2000/svg">
<rect width="100" height="100" rx="25" fill="#282828"/>
<path d="M50.0125 56.3285C53.4669 56.3285 56.2674 53.5281 56.2674 50.0736C56.2674 46.6191 53.4669 43.8187 50.0125 43.8187C46.558 43.8187 43.7576 46.6191 43.7576 50.0736C43.7576 53.5281 46.558 56.3285 50.0125 56.3285Z" fill="#00D8FF"/>
<path d="M50.0125 64.4025C41.2282 64.4025 33.5529 63.3683 27.8088 61.3997C24.0833 60.1288 20.9185 58.4342 18.6632 56.5029C16.2709 54.4595 15 52.2291 15 50.0736C15 45.9369 19.5354 41.8874 27.1485 39.2459C33.3784 37.0778 41.5023 35.8692 50 35.8692C58.3482 35.8692 66.3599 37.0405 72.5525 39.1836C76.1784 40.4296 79.2311 42.0494 81.3991 43.8436C83.754 45.8123 85 47.9678 85 50.0736C85 54.3723 79.9288 58.7208 71.7551 61.4246C65.9737 63.3434 58.2485 64.4025 50.0125 64.4025ZM50.0125 38.8596C41.9509 38.8596 33.9765 40.0309 28.1452 42.0618C21.1428 44.504 18.0028 47.8432 18.0028 50.0736C18.0028 52.3911 21.3795 56.0419 28.7807 58.5713C34.2132 60.4278 41.5646 61.4121 50.0125 61.4121C57.937 61.4121 65.3257 60.4153 70.8206 58.5837C78.5084 56.0294 82.0221 52.3787 82.0221 50.0736C82.0221 48.8899 81.125 47.4944 79.4927 46.1362C77.6112 44.5663 74.8701 43.1334 71.5931 41.9995C65.6995 39.981 58.0367 38.8596 50.0125 38.8596Z" fill="#00D8FF"/>
<path d="M35.8206 81.2484C34.5497 81.2484 33.4283 80.9743 32.4813 80.426C28.9053 78.3577 27.6593 72.4018 29.167 64.4897C30.4005 57.9981 33.4158 50.3726 37.6646 43.0088C41.8387 35.782 46.8476 29.4274 51.7942 25.1287C54.6849 22.6118 57.613 20.7678 60.2545 19.7959C63.1328 18.7368 65.6248 18.7368 67.4439 19.7834C71.1695 21.9265 72.403 28.5054 70.6586 36.9283C69.4251 42.9091 66.4845 50.1234 62.3727 57.263C57.9868 64.8635 53.252 70.9938 48.6792 74.9935C45.7138 77.5851 42.6611 79.4791 39.8701 80.4634C38.4123 80.9867 37.0417 81.2484 35.8206 81.2484ZM38.948 43.7564L40.2439 44.504C36.2193 51.4815 33.2414 58.97 32.0951 65.0504C30.712 72.3395 32.0452 76.7254 33.964 77.8343C34.4375 78.1085 35.0605 78.258 35.8206 78.258C38.3001 78.258 42.2001 76.688 46.7106 72.7507C51.0342 68.9753 55.5571 63.0942 59.7811 55.7802C63.7433 48.9148 66.5593 42.012 67.7305 36.3427C69.3628 28.4057 67.9548 23.5463 65.9487 22.3876C64.927 21.8019 63.2699 21.8767 61.2763 22.6118C58.9712 23.4591 56.367 25.1163 53.7504 27.3965C49.053 31.4833 44.256 37.5638 40.2439 44.5164L38.948 43.7564Z" fill="#00D8FF"/>
<path d="M64.2043 81.2858C60.8152 81.2858 56.5166 79.2423 52.031 75.3797C47.0221 71.0686 41.926 64.6517 37.6647 57.2879C33.4781 50.0611 30.4877 42.5478 29.2293 36.106C28.4941 32.3431 28.3571 28.8917 28.8305 26.1131C29.3539 23.0853 30.5874 20.9297 32.419 19.8706C36.1321 17.7151 42.4493 19.9329 48.8786 25.6521C53.4389 29.7015 58.2236 35.8568 62.3478 42.9839C66.7462 50.5844 69.6992 57.7489 70.8704 63.7048C71.6305 67.5673 71.7551 71.1558 71.2193 74.0714C70.6461 77.174 69.3503 79.3794 67.4813 80.4634C66.5468 81.0116 65.4379 81.2858 64.2043 81.2858ZM40.2563 55.7927C44.2933 62.7703 49.3022 69.0875 53.9872 73.112C59.6066 77.9465 64.0673 78.9931 65.9986 77.8717C68.0046 76.713 69.4749 71.9657 67.9548 64.2904C66.8334 58.6585 64.005 51.8055 59.7686 44.4915C55.7939 37.6261 51.2211 31.7325 46.8975 27.8949C40.8419 22.5122 35.9327 21.3035 33.9267 22.4623C32.9049 23.0479 32.1449 24.5307 31.7836 26.6239C31.3724 29.0412 31.497 32.1312 32.1698 35.5328C33.366 41.6506 36.2318 48.84 40.2563 55.7927Z" fill="#00D8FF"/>
</svg>
