<svg xmlns="http://www.w3.org/2000/svg" width="100" height="100" viewBox="0 0 100 100" fill="none">
  <path d="M100 86.1111C100 93.7833 93.7833 100 86.1111 100H13.8889C6.21944 100 0 93.7833 0 86.1111V13.8889C0 6.21667 6.21944 0 13.8889 0H86.1111C93.7833 0 100 6.21667 100 13.8889V86.1111Z" fill="#0288D1"/>
  <path d="M17.3333 36.7778H31.2221V84H17.3333V36.7778ZM24.236 31.2223H24.1583C20.0138 31.2223 17.3333 28.1334 17.3333 24.275C17.3333 20.3334 20.0971 17.3334 24.3166 17.3334C28.5416 17.3334 31.1444 20.3334 31.2221 24.275C31.2221 28.1306 28.5416 31.2223 24.236 31.2223ZM83.9999 84H70.111V58.725C70.111 52.6195 66.7083 48.4528 61.2444 48.4528C57.0749 48.4528 54.8194 51.2639 53.7249 53.9806C53.3249 54.9528 53.4444 57.6417 53.4444 59V84H39.5555V36.7778H53.4444V44.0445C55.4471 40.9445 58.5832 36.7778 66.6055 36.7778C76.5444 36.7778 83.9971 43.0278 83.9971 56.9834L83.9999 84Z" fill="white"/>
</svg>