<svg width="639" height="639" viewBox="0 0 639 639" fill="none" xmlns="http://www.w3.org/2000/svg">
<g filter="url(#filter0_d_654_28)">
<circle cx="339.5" cy="309.5" r="289.5" fill="white"/>
</g>
<path d="M240 152V514H264.5V219.5L317.5 283V426H342V283L394.5 219.5V413.5C394.5 413.5 396.705 433.762 392 444C390.057 448.229 384.184 453.345 380.5 456C377.228 458.358 370.5 459.5 370.5 459.5H317.5V485H371.5C371.5 485 384.515 484.195 394.5 477.5C400.89 473.216 409.267 464.228 413 459C420.358 448.695 421 430.5 421 430.5V153.5L330.5 259L240 152Z" fill="#232323"/>
<path d="M421 142L405.412 115H436.588L421 142Z" fill="#232323"/>
<defs>
<filter id="filter0_d_654_28" x="0" y="0" width="639" height="639" filterUnits="userSpaceOnUse" color-interpolation-filters="sRGB">
<feFlood flood-opacity="0" result="BackgroundImageFix"/>
<feColorMatrix in="SourceAlpha" type="matrix" values="0 0 0 0 0 0 0 0 0 0 0 0 0 0 0 0 0 0 127 0" result="hardAlpha"/>
<feMorphology radius="5" operator="dilate" in="SourceAlpha" result="effect1_dropShadow_654_28"/>
<feOffset dx="-20" dy="10"/>
<feGaussianBlur stdDeviation="12.5"/>
<feComposite in2="hardAlpha" operator="out"/>
<feColorMatrix type="matrix" values="0 0 0 0 0.816667 0 0 0 0 0.660313 0 0 0 0 0.598889 0 0 0 0.5 0"/>
<feBlend mode="normal" in2="BackgroundImageFix" result="effect1_dropShadow_654_28"/>
<feBlend mode="normal" in="SourceGraphic" in2="effect1_dropShadow_654_28" result="shape"/>
</filter>
</defs>
</svg>
