<svg id="Layer_1" data-name="Layer 1" xmlns="http://www.w3.org/2000/svg" xmlns:xlink="http://www.w3.org/1999/xlink" viewBox="0 0 333.23 377.81"><defs><style>.cls-1{fill:url(#Orange_Yellow);}.cls-2{fill:url(#Orange_Yellow-2);}.cls-3{fill:url(#Orange_Yellow-3);}</style><linearGradient id="Orange_Yellow" x1="233.04" y1="167.63" x2="158.04" y2="251.38" gradientUnits="userSpaceOnUse"><stop offset="0" stop-color="#fff33b"/><stop offset="0.04" stop-color="#fee72e"/><stop offset="0.12" stop-color="#fed51b"/><stop offset="0.2" stop-color="#fdca10"/><stop offset="0.28" stop-color="#fdc70c"/><stop offset="0.67" stop-color="#f3903f"/><stop offset="0.89" stop-color="#ed683c"/><stop offset="1" stop-color="#e93e3a"/></linearGradient><linearGradient id="Orange_Yellow-2" x1="196.33" y1="99.32" x2="53.21" y2="305.57" xlink:href="#Orange_Yellow"/><linearGradient id="Orange_Yellow-3" x1="240.14" y1="129.72" x2="97.01" y2="335.97" xlink:href="#Orange_Yellow"/></defs><title>new logo</title><path class="cls-1" d="M355.59,366.34c-71.75-9.39-130.79-49.87-155.74-104C175,316.36,116,356.86,44.41,366.34V42.72c71.65,9.51,130.59,50,155.49,104.11,24.85-54,83.65-94.51,155.19-104.11Z" transform="translate(-33.38 -15.12)"/><polygon class="cls-2" points="11.03 377.81 7.62 370.91 0 369.8 5.51 364.43 4.21 356.84 11.03 360.42 17.84 356.84 16.54 364.43 22.05 369.8 14.43 370.91 11.03 377.81"/><polygon class="cls-3" points="322.21 0 325.61 6.9 333.23 8.01 327.72 13.38 329.02 20.97 322.21 17.39 315.39 20.97 316.69 13.38 311.18 8.01 318.8 6.9 322.21 0"/></svg>