<svg width="1288" height="1113" viewBox="0 0 1288 1113" fill="none" xmlns="http://www.w3.org/2000/svg">
<g clip-path="url(#clip0_408_3)">
<rect width="1288" height="1113" rx="25" fill="#C9C9C9"/>
<path d="M643.25 416.189C466.679 349.088 436.525 847.516 441.493 948.368C465.665 796.868 814.5 855 871 887.5C957.708 839.462 748.217 456.08 643.25 416.189Z" fill="#FF3D55" fill-opacity="0.5"/>
<path d="M795.105 1246.79C568.352 1087.26 314.517 879.408 651.74 892.13C988.964 904.851 1021.86 1406.32 795.105 1246.79Z" fill="#8717FB" fill-opacity="0.5"/>
<path d="M931.648 915.104C989.238 725.245 791.212 477.26 685 377C803.013 396.037 978.446 439.403 1095.69 573.078C1195.78 687.204 1278.02 793.269 1223.73 975.387C1175.8 1136.18 859.66 1152.43 931.648 915.104Z" fill="#00D870" fill-opacity="0.5"/>
<path d="M115.5 1095H511C313.5 977.5 428.5 803.5 396 695C293.5 571 309 792.5 163.5 792.5C0.500359 773 57.6669 986.833 115.5 1095Z" fill="#0E64FF" fill-opacity="0.5"/>
<path d="M632.5 353.499C663.568 214.171 371.497 50.2906 218 44.5C26.5656 37.2781 38.9996 347.999 38.9997 502.5C38.2985 604.877 87.9997 802.768 186.74 757C285.481 711.231 348 500 427 667.999C427 502.499 467.5 380.499 632.5 353.499Z" fill="#FF5C00" fill-opacity="0.5"/>
<path d="M337.5 39C646 39 611 39.0005 1082.5 39.0001C1257.27 39 1240 63.5 1240 256C1240 716.5 1249.48 723.294 1215.5 676C1153 589 1004 348 684 348C641 144.5 503.282 93.985 337.5 39Z" fill="#FFF500" fill-opacity="0.5"/>
<g filter="url(#filter0_b_408_3)">
<rect width="1288" height="1113" rx="25" fill="white" fill-opacity="0.01"/>
</g>
</g>
<defs>
<filter id="filter0_b_408_3" x="-300" y="-300" width="1888" height="1713" filterUnits="userSpaceOnUse" color-interpolation-filters="sRGB">
<feFlood flood-opacity="0" result="BackgroundImageFix"/>
<feGaussianBlur in="BackgroundImageFix" stdDeviation="150"/>
<feComposite in2="SourceAlpha" operator="in" result="effect1_backgroundBlur_408_3"/>
<feBlend mode="normal" in="SourceGraphic" in2="effect1_backgroundBlur_408_3" result="shape"/>
</filter>
<clipPath id="clip0_408_3">
<rect width="1288" height="1113" rx="25" fill="white"/>
</clipPath>
</defs>
</svg>
